HIERARCHY
ROOT reference
{
  OFFSET -14.9618 0 -88.1468
  CHANNELS 6 Xposition Yposition Zposition Zrotation Xrotation Yrotation
  JOINT root
  {
    OFFSET -1.34051 87.6824 0.92295
    CHANNELS 6 Xposition Yposition Zposition Zrotation Xrotation Yrotation
    JOINT Hips
    {
      OFFSET 0 0 0
      CHANNELS 6 Xposition Yposition Zposition Zrotation Xrotation Yrotation
      JOINT Spine
      {
        OFFSET -0.022439 -0.1054 -0.012426
        CHANNELS 6 Xposition Yposition Zposition Zrotation Xrotation Yrotation
        JOINT Spine1
        {
          OFFSET 5.77671 16.9612 4.84239
          CHANNELS 6 Xposition Yposition Zposition Zrotation Xrotation Yrotation
          JOINT Spine2
          {
            OFFSET 6.19521 16.1153 6.81891
            CHANNELS 6 Xposition Yposition Zposition Zrotation Xrotation Yrotation
            JOINT Neck
            {
              OFFSET 8.89408 13.5778 9.00239
              CHANNELS 6 Xposition Yposition Zposition Zrotation Xrotation Yrotation
              JOINT Head
              {
                OFFSET 5.68768 7.20032 6.98544
                CHANNELS 6 Xposition Yposition Zposition Zrotation Xrotation Yrotation
                End Site
                {
                  OFFSET 0 0 0
                }
              }
            }
            JOINT RightShoulder
            {
              OFFSET 7.14066 12.6907 12.0691
              CHANNELS 6 Xposition Yposition Zposition Zrotation Xrotation Yrotation
              JOINT RightArm
              {
                OFFSET -6.46837 -6.45928 13.2304
                CHANNELS 6 Xposition Yposition Zposition Zrotation Xrotation Yrotation
                JOINT RightForearm
                {
                  OFFSET 3.23048 -13.451 25.948
                  CHANNELS 6 Xposition Yposition Zposition Zrotation Xrotation Yrotation
                  JOINT RightHand
                  {
                    OFFSET 14.4625 -2.09482 20.1953
                    CHANNELS 6 Xposition Yposition Zposition Zrotation Xrotation Yrotation
                    End Site
                    {
                      OFFSET 0 0 0
                    }
                  }
                }
              }
            }
            JOINT LeftShoulder
            {
              OFFSET 10.6568 14.4508 5.94266
              CHANNELS 6 Xposition Yposition Zposition Zrotation Xrotation Yrotation
              JOINT LeftArm
              {
                OFFSET 6.97329 3.71591 -14.0061
                CHANNELS 6 Xposition Yposition Zposition Zrotation Xrotation Yrotation
                JOINT LeftForearm
                {
                  OFFSET -7.16178 -11.9495 -25.8956
                  CHANNELS 6 Xposition Yposition Zposition Zrotation Xrotation Yrotation
                  JOINT LeftHand
                  {
                    OFFSET 12.9044 -19.5933 8.42483
                    CHANNELS 6 Xposition Yposition Zposition Zrotation Xrotation Yrotation
                    End Site
                    {
                      OFFSET 0 0 0
                    }
                  }
                }
              }
            }
          }
        }
      }
      JOINT RightUpLeg
      {
        OFFSET -4.5422 -0.222001 8.40704
        CHANNELS 6 Xposition Yposition Zposition Zrotation Xrotation Yrotation
        JOINT RightLeg
        {
          OFFSET 10.0342 -37.9966 21.9721
          CHANNELS 6 Xposition Yposition Zposition Zrotation Xrotation Yrotation
          JOINT RightFoot
          {
            OFFSET -2.89176 -41.001 -2.47504
            CHANNELS 6 Xposition Yposition Zposition Zrotation Xrotation Yrotation
            JOINT RightToe
            {
              OFFSET 4.98398 -7.3463 15.663
              CHANNELS 6 Xposition Yposition Zposition Zrotation Xrotation Yrotation
              End Site
              {
                OFFSET 0 0 0
              }
            }
          }
        }
      }
      JOINT LeftUpLeg
      {
        OFFSET 4.5422 0.222008 -8.40702
        CHANNELS 6 Xposition Yposition Zposition Zrotation Xrotation Yrotation
        JOINT LeftLeg
        {
          OFFSET 10.1292 -41.6279 -13.8462
          CHANNELS 6 Xposition Yposition Zposition Zrotation Xrotation Yrotation
          JOINT LeftFoot
          {
            OFFSET -9.91069 -37.454 -13.9481
            CHANNELS 6 Xposition Yposition Zposition Zrotation Xrotation Yrotation
            JOINT LeftToe
            {
              OFFSET 16.055 -8.14678 0.070286
              CHANNELS 6 Xposition Yposition Zposition Zrotation Xrotation Yrotation
              End Site
              {
                OFFSET 0 0 0
              }
            }
          }
        }
      }
    }
  }
}
MOTION
Frames:	5
Frame Time:	0.0333333
-7.97984 0 -50.3235 0 0 -0 1.21578 87.2123 -6.91529 0.969033 0.24544 -4.38786 1e-06 0 1e-06 -0.301483 -0.569219 0.183688 -0.022439 -0.1054 -0.012426 -0.068965 -0.646288 1.12923 5.77671 16.9612 4.84239 0.216083 -0.647442 1.87734 6.19521 16.1153 6.81891 0.325476 -0.315015 1.28197 8.89408 13.5778 9.00239 -0.583047 0.321319 0.592956 5.68768 7.20032 6.98544 -0.93629 1.02134 0.880066 7.14066 12.6907 12.0691 -0.369574 -0.644396 -0.24978 -6.46837 -6.45928 13.2304 0.213327 2.44893 2.36474 3.23048 -13.451 25.948 -0.368122 0.430619 -0.610247 14.4625 -2.09482 20.1953 -0.225456 -0.529245 -0.141172 10.6568 14.4508 5.94266 -0.277024 -0.400769 -0.192737 6.97329 3.71591 -14.0061 -1.69801 2.29455 1.33512 -7.16178 -11.9495 -25.8956 -0.213481 0.438808 0.198581 12.9044 -19.5933 8.42483 -0.0676487 -0.434001 0.349248 -4.5422 -0.222001 8.40704 -7.71321 16.13 9.41414 10.0342 -37.9966 21.9721 -8.50357 15.9614 0.567758 -2.89176 -41.001 -2.47504 23.4953 -9.07566 8.36533 4.98398 -7.3463 15.663 -2.72638 -16.952 3.23895 4.5422 0.222008 -8.40702 13.3613 -33.1146 7.55517 10.1292 -41.6279 -13.8462 -11.5211 0.489666 4.10687 -9.91069 -37.454 -13.9481 -1.81443 13.1065 1.39992 16.055 -8.14678 0.070286 -0.54451 2.29906 -0.0246069 
-8.14208 0 -52.8421 0 0 -0 0.383502 87.2086 -6.7013 0.787584 0.835871 -4.28512 1e-06 0 1e-06 -0.376361 -0.711344 0.230601 -0.022439 -0.1054 -0.012426 -0.137564 -0.727187 1.16801 5.77671 16.9612 4.84239 0.148558 -0.735981 2.00551 6.19521 16.1153 6.81891 0.292295 -0.366288 1.38041 8.89408 13.5778 9.00239 -0.398027 0.284415 0.472527 5.68768 7.20032 6.98544 -0.607945 0.82472 0.721 7.14066 12.6907 12.0691 -0.292498 -0.54949 -0.156966 -6.46837 -6.45928 13.2304 0.595372 2.02892 1.989 3.23048 -13.451 25.948 -0.276547 0.322628 -0.457969 14.4625 -2.09482 20.1953 -0.396645 -0.66717 -0.104347 10.6568 14.4508 5.94266 -0.264072 -0.429328 -0.103036 6.97329 3.71591 -14.0061 -1.03723 2.0124 1.63642 -7.16178 -11.9495 -25.8956 -0.344179 0.705542 0.320283 12.9044 -19.5933 8.42483 -0.0487455 -0.411174 0.320595 -4.5422 -0.222001 8.40704 -6.00345 16.4056 6.59653 10.0342 -37.9966 21.9721 -7.58439 14.3018 0.392651 -2.89176 -41.001 -2.47504 20.2173 -14.2346 7.05969 4.98398 -7.3463 15.663 -0.109598 -11.2437 2.52392 4.5422 0.222008 -8.40702 16.1305 -33.4501 6.27055 10.1292 -41.6279 -13.8462 -14.1711 0.484866 5.05866 -9.91069 -37.454 -13.9481 -6.83491 5.23688 2.15731 16.055 -8.14678 0.070286 -0.5041 2.12834 -0.0231303 
-8.69432 0 -57.9846 0 0 -0 -1.23813 87.1874 -5.82389 0.531901 1.58951 -3.03453 1e-06 1.42109e-14 1e-06 -0.503423 -0.952849 0.30398 -0.022439 -0.1054 -0.012426 -0.253625 -0.826151 0.884886 5.77671 16.9612 4.84239 -0.0313142 -0.882935 1.74551 6.19521 16.1153 6.81891 0.148435 -0.482778 1.2328 8.89408 13.5778 9.00239 -0.302482 0.35421 0.287452 5.68768 7.20032 6.98544 -0.349142 0.850208 0.411994 7.14066 12.6907 12.0691 -0.197508 -0.333433 -0.147561 -6.46837 -6.45928 13.2304 0.826636 1.94002 1.62982 3.23048 -13.451 25.948 -0.0652409 0.0756508 -0.107818 14.4625 -2.09482 20.1953 -0.555591 -0.703509 -0.126183 10.6568 14.4508 5.94266 -0.168341 -0.262526 -0.0861017 6.97329 3.71591 -14.0061 -0.302505 1.6849 1.66672 -7.16178 -11.9495 -25.8956 -0.575553 1.1742 0.535897 12.9044 -19.5933 8.42483 -0.128302 -0.408359 0.321054 -4.5422 -0.222001 8.40704 -3.08097 16.5927 2.14761 10.0342 -37.9966 21.9721 -5.91767 11.2338 0.14382 -2.89176 -41.001 -2.47504 14.8806 -20.6432 5.45491 4.98398 -7.3463 15.663 2.92217 -2.36668 0.831998 4.5422 0.222008 -8.40702 21.391 -32.1845 3.32169 10.1292 -41.6279 -13.8462 -21.0741 0.265908 7.52845 -9.91069 -37.454 -13.9481 -16.1007 -17.63 -2.66167 16.055 -8.14678 0.070286 -0.424963 1.79424 -0.0216229 
-9.04161 0 -60.274 0 0 -0 -1.86211 87.1929 -5.2803 0.312045 1.7411 -2.30718 1e-06 1.42109e-14 1e-06 -0.506588 -0.958897 0.306316 -0.022439 -0.1054 -0.012426 -0.191985 -0.861169 0.715318 5.77671 16.9612 4.84239 0.0226363 -0.954372 1.50754 6.19521 16.1153 6.81891 0.163486 -0.547124 1.07243 8.89408 13.5778 9.00239 -0.365912 0.358195 0.32039 5.68768 7.20032 6.98544 -0.464845 0.899595 0.45271 7.14066 12.6907 12.0691 -0.181705 -0.324073 -0.117388 -6.46837 -6.45928 13.2304 0.556233 2.21296 1.55022 3.23048 -13.451 25.948 -0.005203 0.00604178 -0.00862545 14.4625 -2.09482 20.1953 -0.473681 -0.612699 -0.142066 10.6568 14.4508 5.94266 -0.119466 -0.22991 0.0131557 6.97329 3.71591 -14.0061 -0.464159 1.98617 1.27449 -7.16178 -11.9495 -25.8956 -0.539672 1.10179 0.502443 12.9044 -19.5933 8.42483 -0.182331 -0.39931 0.285295 -4.5422 -0.222001 8.40704 -2.12808 16.3495 1.55096 10.0342 -37.9966 21.9721 -5.26191 10.0093 0.070619 -2.89176 -41.001 -2.47504 12.7294 -22.7436 4.65665 4.98398 -7.3463 15.663 3.55637 1.34316 -0.0379573 4.5422 0.222008 -8.40702 23.7102 -30.4093 4.04858 10.1292 -41.6279 -13.8462 -23.6629 0.107171 8.44638 -9.91069 -37.454 -13.9481 -16.1521 -22.2853 -5.44981 16.055 -8.14678 0.070286 -0.386631 1.6323 -0.0201024 
-9.59019 0 -62.5178 0 0 -0 -2.30328 87.229 -4.77766 0.454151 1.96307 -1.54283 1e-06 0 1e-06 -0.509732 -0.964875 0.308262 -0.022439 -0.1054 -0.012426 -0.27421 -0.862726 0.533847 5.77671 16.9612 4.84239 -0.124549 -0.984005 1.27619 6.19521 16.1153 6.81891 0.0435315 -0.582366 0.933069 8.89408 13.5778 9.00239 -0.219857 0.253909 0.311915 5.68768 7.20032 6.98544 -0.279262 0.626772 0.491603 7.14066 12.6907 12.0691 -0.157204 -0.258209 -0.125578 -6.46837 -6.45928 13.2304 0.544996 2.14403 1.41545 3.23048 -13.451 25.948 -0.0637379 0.0738972 -0.105319 14.4625 -2.09482 20.1953 -0.386865 -0.559706 -0.178844 10.6568 14.4508 5.94266 -0.153982 -0.238205 -0.0821115 6.97329 3.71591 -14.0061 -0.39584 2.16086 1.23794 -7.16178 -11.9495 -25.8956 -0.503127 1.02797 0.468374 12.9044 -19.5933 8.42483 -0.177508 -0.416001 0.332175 -4.5422 -0.222001 8.40704 -1.33422 15.0752 1.18079 10.0342 -37.9966 21.9721 -5.38056 10.2315 0.0828185 -2.89176 -41.001 -2.47504 10.8215 -23.1282 3.48658 4.98398 -7.3463 15.663 1.10363 0.622184 -0.0480074 4.5422 0.222008 -8.40702 25.7891 -28.0414 7.0963 10.1292 -41.6279 -13.8462 -26.764 -0.137633 9.53648 -9.91069 -37.454 -13.9481 -10.4636 -14.7941 -0.709999 16.055 -8.14678 0.070286 -0.34932 1.47468 -0.0185801 
